<mxfile host="app.diagrams.net" agent="Mozilla/5.0 (X11; Linux x86_64; rv:131.0) Gecko/20100101 Firefox/131.0" version="24.7.17">
  <diagram name="Page-1" id="9nS6Nalt8qF6VQF2Vatm">
    <mxGraphModel dx="555" dy="363" grid="1" gridSize="10" guides="1" tooltips="1" connect="1" arrows="1" fold="1" page="1" pageScale="1" pageWidth="827" pageHeight="1169" math="0" shadow="0">
      <root>
        <mxCell id="0" />
        <mxCell id="1" parent="0" />
        <mxCell id="gRbxm3WSAX4777lx8NaK-19" value="" style="ellipse;whiteSpace=wrap;html=1;strokeWidth=1;dashed=1;dashPattern=8 8;fillColor=none;" vertex="1" parent="1">
          <mxGeometry x="430" y="230" width="160" height="240" as="geometry" />
        </mxCell>
        <mxCell id="gRbxm3WSAX4777lx8NaK-5" value="" style="ellipse;whiteSpace=wrap;html=1;strokeWidth=1;dashed=1;dashPattern=8 8;fillColor=none;" vertex="1" parent="1">
          <mxGeometry x="250" y="230" width="160" height="240" as="geometry" />
        </mxCell>
        <mxCell id="gRbxm3WSAX4777lx8NaK-8" value="&lt;div&gt;moby-network&lt;/div&gt;&lt;div&gt;172.18.0.1/16&lt;/div&gt;" style="text;html=1;align=center;verticalAlign=middle;whiteSpace=wrap;rounded=0;" vertex="1" parent="1">
          <mxGeometry x="285" y="470" width="90" height="30" as="geometry" />
        </mxCell>
        <mxCell id="gRbxm3WSAX4777lx8NaK-21" style="edgeStyle=orthogonalEdgeStyle;rounded=0;orthogonalLoop=1;jettySize=auto;html=1;exitX=0.5;exitY=1;exitDx=0;exitDy=0;entryX=0.5;entryY=0;entryDx=0;entryDy=0;" edge="1" parent="1" source="gRbxm3WSAX4777lx8NaK-11" target="gRbxm3WSAX4777lx8NaK-20">
          <mxGeometry relative="1" as="geometry" />
        </mxCell>
        <mxCell id="gRbxm3WSAX4777lx8NaK-25" style="edgeStyle=orthogonalEdgeStyle;rounded=0;orthogonalLoop=1;jettySize=auto;html=1;exitX=1;exitY=0.5;exitDx=0;exitDy=0;entryX=0.25;entryY=1;entryDx=0;entryDy=0;" edge="1" parent="1" source="gRbxm3WSAX4777lx8NaK-11" target="gRbxm3WSAX4777lx8NaK-23">
          <mxGeometry relative="1" as="geometry" />
        </mxCell>
        <mxCell id="gRbxm3WSAX4777lx8NaK-11" value="" style="whiteSpace=wrap;html=1;aspect=fixed;fillColor=#fff2cc;strokeColor=#d6b656;" vertex="1" parent="1">
          <mxGeometry x="305" y="280" width="50" height="50" as="geometry" />
        </mxCell>
        <mxCell id="gRbxm3WSAX4777lx8NaK-12" value="" style="whiteSpace=wrap;html=1;aspect=fixed;fillColor=#dae8fc;strokeColor=#6c8ebf;" vertex="1" parent="1">
          <mxGeometry x="490" y="360" width="50" height="50" as="geometry" />
        </mxCell>
        <mxCell id="gRbxm3WSAX4777lx8NaK-22" style="edgeStyle=orthogonalEdgeStyle;rounded=0;orthogonalLoop=1;jettySize=auto;html=1;exitX=0.5;exitY=1;exitDx=0;exitDy=0;entryX=0.5;entryY=0;entryDx=0;entryDy=0;" edge="1" parent="1" source="gRbxm3WSAX4777lx8NaK-13" target="gRbxm3WSAX4777lx8NaK-12">
          <mxGeometry relative="1" as="geometry" />
        </mxCell>
        <mxCell id="gRbxm3WSAX4777lx8NaK-26" style="edgeStyle=orthogonalEdgeStyle;rounded=0;orthogonalLoop=1;jettySize=auto;html=1;exitX=0;exitY=0.5;exitDx=0;exitDy=0;entryX=0.75;entryY=1;entryDx=0;entryDy=0;" edge="1" parent="1" source="gRbxm3WSAX4777lx8NaK-13" target="gRbxm3WSAX4777lx8NaK-23">
          <mxGeometry relative="1" as="geometry" />
        </mxCell>
        <mxCell id="gRbxm3WSAX4777lx8NaK-13" value="" style="whiteSpace=wrap;html=1;aspect=fixed;fillColor=#d5e8d4;strokeColor=#82b366;" vertex="1" parent="1">
          <mxGeometry x="490" y="280" width="50" height="50" as="geometry" />
        </mxCell>
        <mxCell id="gRbxm3WSAX4777lx8NaK-18" value="&lt;div&gt;Docker automatic DNS&lt;br&gt;&lt;/div&gt;" style="text;html=1;align=center;verticalAlign=middle;whiteSpace=wrap;rounded=0;" vertex="1" parent="1">
          <mxGeometry x="320" y="510" width="200" height="30" as="geometry" />
        </mxCell>
        <mxCell id="gRbxm3WSAX4777lx8NaK-20" value="" style="whiteSpace=wrap;html=1;aspect=fixed;fillColor=#ffe6cc;strokeColor=#d79b00;" vertex="1" parent="1">
          <mxGeometry x="305" y="360" width="50" height="50" as="geometry" />
        </mxCell>
        <mxCell id="gRbxm3WSAX4777lx8NaK-23" value="&lt;div&gt;serveur DNS&lt;/div&gt;&lt;div&gt;Docker&lt;/div&gt;" style="rounded=1;whiteSpace=wrap;html=1;" vertex="1" parent="1">
          <mxGeometry x="380" y="220" width="80" height="60" as="geometry" />
        </mxCell>
        <mxCell id="gRbxm3WSAX4777lx8NaK-28" value="&lt;div&gt;moby-network2&lt;/div&gt;&lt;div&gt;172.19.0.1/16&lt;/div&gt;" style="text;html=1;align=center;verticalAlign=middle;whiteSpace=wrap;rounded=0;" vertex="1" parent="1">
          <mxGeometry x="470" y="470" width="90" height="30" as="geometry" />
        </mxCell>
        <mxCell id="gRbxm3WSAX4777lx8NaK-29" value="&lt;div&gt;moby-counter2&lt;/div&gt;&lt;div&gt;172.19.0.2&lt;/div&gt;" style="text;html=1;align=center;verticalAlign=middle;whiteSpace=wrap;rounded=0;" vertex="1" parent="1">
          <mxGeometry x="470" y="250" width="90" height="30" as="geometry" />
        </mxCell>
        <mxCell id="gRbxm3WSAX4777lx8NaK-30" value="&lt;div&gt;redis2&lt;br&gt;network-alias redis&lt;br&gt;&lt;/div&gt;&lt;div&gt;172.19.0.2&lt;/div&gt;" style="text;html=1;align=center;verticalAlign=middle;whiteSpace=wrap;rounded=0;" vertex="1" parent="1">
          <mxGeometry x="460" y="420" width="110" height="30" as="geometry" />
        </mxCell>
        <mxCell id="gRbxm3WSAX4777lx8NaK-31" value="&lt;div&gt;redis&lt;br&gt;&lt;/div&gt;&lt;div&gt;172.18.0.3&lt;/div&gt;" style="text;html=1;align=center;verticalAlign=middle;whiteSpace=wrap;rounded=0;" vertex="1" parent="1">
          <mxGeometry x="275" y="420" width="110" height="30" as="geometry" />
        </mxCell>
        <mxCell id="gRbxm3WSAX4777lx8NaK-32" value="&lt;div&gt;moby-counter&lt;/div&gt;&lt;div&gt;172.18.0.2&lt;/div&gt;" style="text;html=1;align=center;verticalAlign=middle;whiteSpace=wrap;rounded=0;" vertex="1" parent="1">
          <mxGeometry x="285" y="250" width="90" height="30" as="geometry" />
        </mxCell>
        <mxCell id="gRbxm3WSAX4777lx8NaK-33" value="DNS request&lt;br&gt;on &lt;b&gt;redis&lt;/b&gt; domain" style="text;html=1;align=center;verticalAlign=middle;whiteSpace=wrap;rounded=0;fillColor=#f5f5f5;fontColor=#333333;strokeColor=#666666;" vertex="1" parent="1">
          <mxGeometry x="390" y="300" width="60" height="80" as="geometry" />
        </mxCell>
      </root>
    </mxGraphModel>
  </diagram>
</mxfile>
